USFL
nRows=116
nColumns=2
inDegrees=yes
endheader
time	med_gas_r	
3.72154	 52.777171	
3.7931	 52.549444	
3.86467	 52.341726	
3.93624	 52.367426	
4.00781	 52.470671	
4.07938	 52.470162	
4.15094	 52.287280	
4.22251	 52.269790	
4.29408	 52.381145	
4.36565	 52.244910	
4.43722	 52.003535	
4.50878	 42.537073	
4.58035	 45.095656	
4.65192	 44.195658	
4.72349	 44.397628	
4.79506	 42.954708	
4.86662	 43.384773	
4.93819	 43.786840	
5.00976	 44.039482	
5.08133	 44.000427	
5.1529	 44.057265	
5.22446	 44.040409	
5.29603	 43.964972	
5.3676	 44.047633	
5.43917	 44.347928	
5.51074	 42.349784	
5.5823	 42.522145	
5.65387	 42.789155	
5.72544	 45.665285	
5.79701	 45.607677	
5.86858	 46.915216	
5.94014	 46.359849	
6.01171	 46.432747	
6.08328	 46.104251	
6.15485	 45.626253	
6.22642	 45.469264	
6.29798	 45.143669	
6.36955	 45.104402	
6.44112	 45.023843	
6.51269	 45.147456	
6.58426	 45.597168	
6.65582	 45.498542	
6.72739	 45.509157	
6.79896	 45.893209	
6.87053	 45.887331	
6.9421	 45.954939	
7.01366	 46.066325	
7.08523	 46.000349	
7.1568	 46.137748	
7.22837	 46.276003	
7.29994	 46.389265	
7.3715	 45.814692	
7.44307	 45.918585	
7.51464	 46.043415	
7.58621	 46.137671	
7.65778	 46.136829	
7.72934	 46.159774	
7.80091	 46.257094	
7.87248	 46.366885	
7.94405	 46.686434	
8.01562	 46.574656	
8.08718	 47.953728	
8.15875	 47.978962	
8.23032	 48.108378	
8.30189	 48.370359	
8.37346	 48.292737	
8.44502	 48.419871	
8.51659	 48.670748	
8.58816	 48.574152	
8.65973	 49.958834	
8.7313	 50.111604	
8.80286	 50.063815	
8.87443	 50.091165	
8.946	 49.977252	
9.01757	 49.860112	
9.08914	 49.620321	
9.1607	 49.448503	
9.23227	 49.356200	
9.30384	 49.394651	
9.37541	 49.399102	
9.44698	 49.452813	
9.51854	 49.442659	
9.59011	 49.505267	
9.66168	 49.476734	
9.73325	 49.430423	
9.80482	 49.447418	
9.87638	 49.455702	
9.94795	 49.433548	
10.0195	 49.197631	
10.0911	 49.260538	
10.1627	 49.277284	
10.2342	 49.298319	
10.3058	 49.360699	
10.3774	 49.450032	
10.4489	 49.480907	
10.5205	 49.547176	
10.5921	 49.597195	
10.6636	 49.757868	
10.7352	 49.602703	
10.8068	 49.543659	
10.8783	 50.848425	
10.9499	 50.942825	
11.0215	 51.025657	
11.093	 51.233897	
11.1646	 51.129269	
11.2362	 51.322857	
11.3077	 51.656798	
11.3793	 51.418065	
11.4509	 51.341701	
11.5224	 51.463487	
11.594	 51.572736	
11.6656	 51.704983	
11.7372	 51.902859	
11.8087	 51.835800	
11.8803	 51.822723	
11.9519	 51.957931	
